<?xml version="1.0" encoding="UTF-8"?>
<svg id="Layer_2" data-name="Layer 2" xmlns="http://www.w3.org/2000/svg" viewBox="0 0 501 501">
  <defs>
    <style>
      .cls-1 {
        fill: #fff;
      }

      .cls-2 {
        fill: #6ac4c1;
      }

      .cls-3 {
        fill: #b4d351;
      }

      .cls-4 {
        fill: #201e2f;
        stroke: #231f20;
        stroke-miterlimit: 10;
      }

      .cls-5 {
        fill: #c177b2;
      }
    </style>
  </defs>
  <g id="Background">
    <rect class="cls-4" x=".5" y=".5" width="500" height="500"/>
  </g>
  <g id="Layer_2-2" data-name="Layer 2">
    <g>
      <path class="cls-1" d="m32.57,82.53c0-2.51.43-4.66,1.3-6.45.87-1.79,2.43-3.77,4.67-5.95,2.21-2.17,3.74-4.03,4.59-5.57.85-1.54,1.28-3.14,1.28-4.82,0-1.51-.26-2.55-.79-3.14-.53-.58-1.3-.88-2.31-.88-2.06,0-3.1,1.15-3.1,3.46v3.76h-5.65v-3.41c0-2.84.76-5.03,2.28-6.55,1.52-1.52,3.73-2.28,6.63-2.28s5.11.76,6.63,2.28c1.52,1.52,2.28,3.7,2.28,6.55,0,2.14-.55,4.23-1.66,6.27-1.1,2.04-3.02,4.38-5.73,7.02-1.77,1.74-2.97,3.15-3.59,4.24-.62,1.09-.92,2.25-.92,3.49v.75h11.35v5.02h-17.28v-3.81Z"/>
      <path class="cls-1" d="m66.09,56.24h-12.06v-5.02h17.93v4.82l-9.34,30.3h-6.08l9.56-30.1Z"/>
    </g>
    <g>
      <path class="cls-1" d="m33.42,156.62c0-2.51.43-4.66,1.3-6.45.87-1.79,2.43-3.77,4.67-5.95,2.21-2.17,3.74-4.03,4.59-5.57.85-1.54,1.28-3.14,1.28-4.82,0-1.51-.26-2.55-.79-3.14-.53-.58-1.3-.88-2.31-.88-2.06,0-3.1,1.15-3.1,3.46v3.76h-5.65v-3.41c0-2.84.76-5.03,2.28-6.55,1.52-1.52,3.73-2.28,6.63-2.28s5.11.76,6.63,2.28c1.52,1.52,2.28,3.7,2.28,6.55,0,2.14-.55,4.23-1.66,6.27-1.1,2.04-3.02,4.38-5.73,7.02-1.77,1.74-2.97,3.15-3.59,4.24-.62,1.09-.92,2.25-.92,3.49v.75h11.35v5.02h-17.28v-3.81Z"/>
      <path class="cls-1" d="m56.97,158.7c-1.61-1.49-2.42-3.64-2.42-6.45v-3.11c0-1.74.31-3.2.92-4.39.62-1.19,1.61-2.12,2.99-2.79v-.1c-1.27-.64-2.2-1.51-2.8-2.63-.6-1.12-.9-2.55-.9-4.29v-1.46c0-2.81.79-4.96,2.36-6.45,1.58-1.49,3.83-2.23,6.76-2.23s5.19.75,6.76,2.23c1.58,1.49,2.36,3.64,2.36,6.45v1.46c0,3.34-1.23,5.65-3.69,6.92v.1c1.38.67,2.37,1.6,2.99,2.79.62,1.19.92,2.65.92,4.39v3.11c0,2.81-.81,4.96-2.42,6.45-1.61,1.49-3.92,2.23-6.93,2.23s-5.32-.74-6.93-2.23Zm10.29-6.75v-3.36c0-2.64-1.12-3.96-3.37-3.96s-3.37,1.32-3.37,3.96v3.36c0,2.64,1.12,3.96,3.37,3.96s3.37-1.32,3.37-3.96Zm-.22-15.85v-2.76c0-2.34-1.05-3.51-3.15-3.51s-3.15,1.17-3.15,3.51v2.76c0,2.34,1.05,3.51,3.15,3.51s3.15-1.17,3.15-3.51Z"/>
    </g>
    <g>
      <path class="cls-1" d="m32.57,228.43c0-2.51.43-4.66,1.3-6.45.87-1.79,2.43-3.77,4.67-5.95,2.21-2.17,3.74-4.03,4.59-5.57.85-1.54,1.28-3.14,1.28-4.82,0-1.5-.26-2.55-.79-3.14-.53-.58-1.3-.88-2.31-.88-2.06,0-3.1,1.15-3.1,3.46v3.76h-5.65v-3.41c0-2.84.76-5.03,2.28-6.55,1.52-1.52,3.73-2.28,6.63-2.28s5.11.76,6.63,2.28c1.52,1.52,2.28,3.71,2.28,6.55,0,2.14-.55,4.23-1.66,6.27-1.1,2.04-3.02,4.38-5.73,7.02-1.77,1.74-2.97,3.15-3.59,4.24-.62,1.09-.92,2.25-.92,3.49v.75h11.35v5.02h-17.28v-3.81Z"/>
      <path class="cls-1" d="m56.21,230.46c-1.52-1.52-2.28-3.7-2.28-6.55v-.65h5.65v1c0,2.31,1.03,3.46,3.1,3.46,1.12,0,1.96-.32,2.5-.95.54-.63.81-1.76.81-3.36v-6.72h-.11c-1.05,2.04-2.86,3.06-5.43,3.06-2.17,0-3.82-.69-4.94-2.06-1.12-1.37-1.68-3.36-1.68-5.97v-6.27c0-2.81.78-4.98,2.34-6.52,1.56-1.54,3.8-2.31,6.74-2.31s5.18.77,6.74,2.31c1.56,1.54,2.34,3.71,2.34,6.52v18.16c0,6.09-3.04,9.13-9.13,9.13-2.9,0-5.11-.76-6.63-2.28Zm9.78-19.19v-6.22c0-2.27-1.03-3.41-3.1-3.41s-3.1,1.14-3.1,3.41v6.22c0,2.31,1.03,3.46,3.1,3.46s3.1-1.15,3.1-3.46Z"/>
    </g>
    <g>
      <path class="cls-1" d="m34.5,303.75c-1.5-1.5-2.25-3.66-2.25-6.47v-2.86h5.65v3.11c0,2.31,1.03,3.46,3.1,3.46,1.01,0,1.78-.29,2.31-.88.52-.58.79-1.61.79-3.09v-2.86c0-1.61-.31-2.75-.92-3.44-.62-.69-1.61-1.03-2.99-1.03h-2.01v-5.02h2.17c1.2,0,2.09-.28,2.69-.85s.9-1.52.9-2.86v-2.56c0-1.2-.27-2.09-.81-2.66-.54-.57-1.27-.85-2.17-.85-1.92,0-2.88,1.09-2.88,3.26v2.31h-5.65v-1.86c0-2.81.75-4.97,2.25-6.47,1.5-1.5,3.67-2.26,6.49-2.26s5.03.75,6.52,2.23c1.48,1.49,2.23,3.64,2.23,6.45v1.25c0,1.91-.34,3.44-1.03,4.59-.69,1.15-1.76,1.98-3.21,2.48v.1c1.56.54,2.68,1.41,3.37,2.61.69,1.2,1.03,2.74,1.03,4.62v3.11c0,2.81-.75,4.96-2.25,6.45-1.5,1.49-3.72,2.23-6.66,2.23s-5.15-.75-6.66-2.26Z"/>
      <path class="cls-1" d="m56.31,303.7c-1.56-1.54-2.34-3.71-2.34-6.52v-18.46c0-2.81.78-4.98,2.34-6.52,1.56-1.54,3.8-2.31,6.74-2.31s5.18.77,6.74,2.31c1.56,1.54,2.34,3.71,2.34,6.52v18.46c0,2.81-.78,4.98-2.34,6.52-1.56,1.54-3.8,2.31-6.74,2.31s-5.18-.77-6.74-2.31Zm9.83-6.17v-19.17c0-2.31-1.03-3.46-3.1-3.46s-3.1,1.15-3.1,3.46v19.17c0,2.31,1.03,3.46,3.1,3.46s3.1-1.15,3.1-3.46Z"/>
    </g>
    <g>
      <path class="cls-1" d="m34.5,374.37c-1.5-1.5-2.25-3.66-2.25-6.47v-2.86h5.65v3.11c0,2.31,1.03,3.46,3.1,3.46,1.01,0,1.78-.29,2.31-.88.52-.58.79-1.61.79-3.09v-2.86c0-1.61-.31-2.75-.92-3.44-.62-.69-1.61-1.03-2.99-1.03h-2.01v-5.02h2.17c1.2,0,2.09-.28,2.69-.85s.9-1.52.9-2.86v-2.56c0-1.2-.27-2.09-.81-2.66-.54-.57-1.27-.85-2.17-.85-1.92,0-2.88,1.09-2.88,3.26v2.31h-5.65v-1.86c0-2.81.75-4.97,2.25-6.47,1.5-1.5,3.67-2.26,6.49-2.26s5.03.75,6.52,2.23c1.48,1.49,2.23,3.64,2.23,6.45v1.25c0,1.91-.34,3.44-1.03,4.59-.69,1.15-1.76,1.98-3.21,2.48v.1c1.56.54,2.68,1.41,3.37,2.61.69,1.2,1.03,2.74,1.03,4.62v3.11c0,2.81-.75,4.96-2.25,6.45-1.5,1.49-3.72,2.23-6.66,2.23s-5.15-.75-6.66-2.26Z"/>
      <path class="cls-1" d="m62.78,349.34h-6.25v-3.91c1.7,0,3.07-.13,4.1-.4,1.03-.27,1.86-.71,2.47-1.33.62-.62,1.16-1.51,1.63-2.68h4.02v35.12h-5.98v-26.79Z"/>
    </g>
    <g>
      <path class="cls-1" d="m34.5,445.28c-1.5-1.5-2.25-3.66-2.25-6.47v-2.86h5.65v3.11c0,2.31,1.03,3.46,3.1,3.46,1.01,0,1.78-.29,2.31-.88.52-.58.79-1.61.79-3.09v-2.86c0-1.61-.31-2.75-.92-3.44-.62-.69-1.61-1.03-2.99-1.03h-2.01v-5.02h2.17c1.2,0,2.09-.28,2.69-.85s.9-1.52.9-2.86v-2.56c0-1.2-.27-2.09-.81-2.66-.54-.57-1.27-.85-2.17-.85-1.92,0-2.88,1.09-2.88,3.26v2.31h-5.65v-1.86c0-2.81.75-4.97,2.25-6.47,1.5-1.5,3.67-2.26,6.49-2.26s5.03.75,6.52,2.23c1.48,1.49,2.23,3.64,2.23,6.45v1.25c0,1.91-.34,3.44-1.03,4.59-.69,1.15-1.76,1.98-3.21,2.48v.1c1.56.54,2.68,1.41,3.37,2.61.69,1.2,1.03,2.74,1.03,4.62v3.11c0,2.81-.75,4.96-2.25,6.45-1.5,1.49-3.72,2.23-6.66,2.23s-5.15-.75-6.66-2.26Z"/>
      <path class="cls-1" d="m54.31,443.22c0-2.51.43-4.66,1.3-6.45.87-1.79,2.43-3.77,4.67-5.95,2.21-2.17,3.74-4.03,4.59-5.57.85-1.54,1.28-3.14,1.28-4.82,0-1.5-.26-2.55-.79-3.14-.53-.58-1.3-.88-2.31-.88-2.06,0-3.1,1.15-3.1,3.46v3.76h-5.65v-3.41c0-2.84.76-5.02,2.28-6.55,1.52-1.52,3.73-2.28,6.63-2.28s5.11.76,6.63,2.28c1.52,1.52,2.28,3.71,2.28,6.55,0,2.14-.55,4.23-1.66,6.27-1.1,2.04-3.02,4.38-5.73,7.02-1.77,1.74-2.97,3.15-3.59,4.24-.62,1.09-.92,2.25-.92,3.49v.75h11.35v5.02h-17.28v-3.81Z"/>
    </g>
    <g>
      <path class="cls-3" d="m114.29,49.91h13.74v5.02h-8.7v9.28h6.91v5.02h-6.91v10.79h8.7v5.02h-13.74v-35.12Z"/>
      <path class="cls-3" d="m130.91,49.91h5.04v30.1h8.29v5.02h-13.32v-35.12Z"/>
      <path class="cls-3" d="m146.66,49.91h13.74v5.02h-8.7v9.28h6.91v5.02h-6.91v10.79h8.7v5.02h-13.74v-35.12Z"/>
      <path class="cls-3" d="m163.28,49.91h7.19l3.21,25.14h.09l3.21-25.14h7.19v35.12h-4.76v-26.59h-.09l-3.66,26.59h-4.21l-3.66-26.59h-.09v26.59h-4.4v-35.12Z"/>
      <path class="cls-3" d="m187.92,49.91h13.74v5.02h-8.7v9.28h6.91v5.02h-6.91v10.79h8.7v5.02h-13.74v-35.12Z"/>
      <path class="cls-3" d="m204.54,49.91h6.32l4.9,21.02h.09v-21.02h4.49v35.12h-5.17l-6.04-25.64h-.09v25.64h-4.49v-35.12Z"/>
      <path class="cls-3" d="m228.03,54.92h-5.27v-5.02h15.57v5.02h-5.27v30.1h-5.04v-30.1Z"/>
      <path class="cls-3" d="m237.42,79.71h4.85v5.32h-4.85v-5.32Z"/>
      <path class="cls-3" d="m247.03,83.25c-1.25-1.52-1.88-3.7-1.88-6.55v-2.01h4.76v2.41c0,2.27.87,3.41,2.61,3.41.85,0,1.5-.28,1.95-.83s.66-1.45.66-2.68c0-1.47-.3-2.77-.92-3.89-.61-1.12-1.74-2.47-3.39-4.04-2.08-2.01-3.53-3.82-4.35-5.44-.82-1.62-1.24-3.45-1.24-5.49,0-2.78.64-4.92,1.92-6.45s3.14-2.28,5.59-2.28,4.24.76,5.47,2.28,1.85,3.7,1.85,6.55v1.45h-4.76v-1.81c0-1.2-.21-2.08-.64-2.63s-1.05-.83-1.88-.83c-1.68,0-2.52,1.12-2.52,3.36,0,1.27.31,2.46.94,3.56.63,1.1,1.76,2.44,3.41,4.01,2.11,2.01,3.56,3.83,4.35,5.47.79,1.64,1.19,3.56,1.19,5.77,0,2.88-.65,5.08-1.95,6.62-1.3,1.54-3.18,2.31-5.65,2.31s-4.29-.76-5.54-2.28Z"/>
      <path class="cls-3" d="m267,54.92h-5.27v-5.02h15.57v5.02h-5.27v30.1h-5.04v-30.1Z"/>
      <path class="cls-3" d="m284.53,70.08l-6.09-20.17h5.36l3.43,12.89h.09l3.43-12.89h4.9l-6.09,20.17v14.95h-5.04v-14.95Z"/>
      <path class="cls-3" d="m297.95,49.91h5.04v30.1h8.29v5.02h-13.33v-35.12Z"/>
      <path class="cls-3" d="m313.7,49.91h13.74v5.02h-8.7v9.28h6.91v5.02h-6.91v10.79h8.7v5.02h-13.74v-35.12Z"/>
      <path class="cls-3" d="m331.42,83.25c-1.25-1.52-1.88-3.7-1.88-6.55v-2.01h4.76v2.41c0,2.27.87,3.41,2.61,3.41.85,0,1.5-.28,1.95-.83s.66-1.45.66-2.68c0-1.47-.3-2.77-.92-3.89-.61-1.12-1.74-2.47-3.39-4.04-2.08-2.01-3.53-3.82-4.35-5.44-.82-1.62-1.24-3.45-1.24-5.49,0-2.78.64-4.92,1.92-6.45s3.14-2.28,5.59-2.28,4.24.76,5.47,2.28,1.85,3.7,1.85,6.55v1.45h-4.76v-1.81c0-1.2-.21-2.08-.64-2.63s-1.05-.83-1.88-.83c-1.68,0-2.52,1.12-2.52,3.36,0,1.27.31,2.46.94,3.56.63,1.1,1.76,2.44,3.41,4.01,2.11,2.01,3.56,3.83,4.35,5.47.79,1.64,1.19,3.56,1.19,5.77,0,2.88-.65,5.08-1.95,6.62-1.3,1.54-3.18,2.31-5.65,2.31s-4.29-.76-5.54-2.28Z"/>
    </g>
    <path class="cls-1" d="m358.51,85.73c-1.11-.92-1.66-2.27-1.66-4.07v-9.03c0-1.14-.23-1.92-.7-2.33-.46-.41-1.36-.61-2.68-.61v-4.42c1.32,0,2.21-.2,2.68-.61.46-.41.7-1.19.7-2.33v-9.03c0-1.8.55-3.16,1.66-4.07,1.11-.92,2.54-1.37,4.29-1.37h3v4.42h-.86c-.96,0-1.68.25-2.14.76-.46.51-.7,1.42-.7,2.72v7.36c0,2.29-1.09,3.73-3.27,4.32v.1c2.18.59,3.27,2.03,3.27,4.32v7.36c0,1.31.23,2.22.7,2.72.46.51,1.18.76,2.14.76h.86v4.42h-3c-1.75,0-3.18-.46-4.29-1.37Z"/>
    <g>
      <path class="cls-2" d="m155.05,156.35c-1.49-1.52-2.23-3.7-2.23-6.55v-2.01h5.65v2.41c0,2.27,1.03,3.41,3.1,3.41,1.01,0,1.78-.28,2.31-.83.52-.55.79-1.45.79-2.68,0-1.47-.36-2.77-1.09-3.89-.73-1.12-2.06-2.47-4.02-4.04-2.46-2.01-4.18-3.82-5.16-5.44-.98-1.62-1.47-3.45-1.47-5.49,0-2.78.76-4.92,2.28-6.45,1.52-1.52,3.73-2.28,6.63-2.28s5.03.76,6.49,2.28c1.47,1.52,2.2,3.71,2.2,6.55v1.45h-5.65v-1.81c0-1.2-.25-2.08-.76-2.63-.51-.55-1.25-.83-2.23-.83-1.99,0-2.99,1.12-2.99,3.36,0,1.27.37,2.46,1.11,3.56.74,1.1,2.09,2.44,4.05,4.01,2.5,2.01,4.22,3.83,5.16,5.47.94,1.64,1.41,3.56,1.41,5.77,0,2.88-.77,5.08-2.31,6.62-1.54,1.54-3.78,2.31-6.71,2.31s-5.09-.76-6.57-2.28Z"/>
      <path class="cls-2" d="m178.74,128.03h-6.25v-5.02h18.47v5.02h-6.25v30.1h-5.98v-30.1Z"/>
      <path class="cls-2" d="m199.54,143.18l-7.23-20.17h6.36l4.07,12.89h.11l4.07-12.89h5.81l-7.23,20.17v14.95h-5.98v-14.95Z"/>
      <path class="cls-2" d="m215.46,123.01h5.98v30.1h9.83v5.02h-15.81v-35.12Z"/>
      <path class="cls-2" d="m234.15,123.01h16.3v5.02h-10.32v9.28h8.2v5.02h-8.2v10.79h10.32v5.02h-16.3v-35.12Z"/>
      <path class="cls-2" d="m253.87,133.7h5.76v5.32h-5.76v-5.32Zm0,19.12h5.76v5.32h-5.76v-5.32Z"/>
    </g>
    <g>
      <path class="cls-2" d="m151.82,301.24c-1.49-1.52-2.23-3.7-2.23-6.55v-2.01h5.65v2.41c0,2.27,1.03,3.41,3.1,3.41,1.01,0,1.78-.28,2.31-.83.52-.55.79-1.45.79-2.68,0-1.47-.36-2.77-1.09-3.89-.73-1.12-2.06-2.46-4.02-4.04-2.46-2.01-4.18-3.82-5.16-5.45-.98-1.62-1.47-3.45-1.47-5.49,0-2.78.76-4.93,2.28-6.45,1.52-1.52,3.73-2.28,6.63-2.28s5.03.76,6.49,2.28,2.2,3.71,2.2,6.55v1.46h-5.65v-1.81c0-1.2-.25-2.08-.76-2.63-.51-.55-1.25-.83-2.23-.83-1.99,0-2.99,1.12-2.99,3.36,0,1.27.37,2.46,1.11,3.56.74,1.1,2.09,2.44,4.05,4.01,2.5,2.01,4.22,3.83,5.16,5.47.94,1.64,1.41,3.56,1.41,5.77,0,2.88-.77,5.08-2.31,6.62-1.54,1.54-3.78,2.31-6.71,2.31s-5.09-.76-6.57-2.28Z"/>
      <path class="cls-2" d="m175.51,272.92h-6.25v-5.02h18.47v5.02h-6.25v30.1h-5.98v-30.1Z"/>
      <path class="cls-2" d="m196.32,288.07l-7.23-20.17h6.36l4.07,12.89h.11l4.07-12.89h5.81l-7.23,20.17v14.95h-5.98v-14.95Z"/>
      <path class="cls-2" d="m212.23,267.9h5.98v30.1h9.83v5.02h-15.81v-35.12Z"/>
      <path class="cls-2" d="m230.92,267.9h16.3v5.02h-10.32v9.28h8.2v5.02h-8.2v10.79h10.32v5.02h-16.3v-35.12Z"/>
      <path class="cls-2" d="m250.64,278.59h5.76v5.32h-5.76v-5.32Zm0,19.12h5.76v5.32h-5.76v-5.32Z"/>
    </g>
    <g>
      <path class="cls-2" d="m155.05,227.33c-1.49-1.52-2.23-3.7-2.23-6.55v-2.01h5.65v2.41c0,2.27,1.03,3.41,3.1,3.41,1.01,0,1.78-.28,2.31-.83.52-.55.79-1.45.79-2.68,0-1.47-.36-2.77-1.09-3.89-.73-1.12-2.06-2.47-4.02-4.04-2.46-2.01-4.18-3.82-5.16-5.44-.98-1.62-1.47-3.45-1.47-5.49,0-2.78.76-4.92,2.28-6.45,1.52-1.52,3.73-2.28,6.63-2.28s5.03.76,6.49,2.28,2.2,3.7,2.2,6.55v1.45h-5.65v-1.81c0-1.2-.25-2.08-.76-2.63-.51-.55-1.25-.83-2.23-.83-1.99,0-2.99,1.12-2.99,3.36,0,1.27.37,2.46,1.11,3.56.74,1.1,2.09,2.44,4.05,4.01,2.5,2.01,4.22,3.83,5.16,5.47.94,1.64,1.41,3.56,1.41,5.77,0,2.88-.77,5.08-2.31,6.62-1.54,1.54-3.78,2.31-6.71,2.31s-5.09-.76-6.57-2.28Z"/>
      <path class="cls-2" d="m178.74,199h-6.25v-5.02h18.47v5.02h-6.25v30.1h-5.98v-30.1Z"/>
      <path class="cls-2" d="m199.54,214.16l-7.23-20.17h6.36l4.07,12.89h.11l4.07-12.89h5.81l-7.23,20.17v14.95h-5.98v-14.95Z"/>
      <path class="cls-2" d="m215.46,193.99h5.98v30.1h9.83v5.02h-15.81v-35.12Z"/>
      <path class="cls-2" d="m234.15,193.99h16.3v5.02h-10.32v9.28h8.2v5.02h-8.2v10.79h10.32v5.02h-16.3v-35.12Z"/>
      <path class="cls-2" d="m253.87,204.67h5.76v5.32h-5.76v-5.32Zm0,19.12h5.76v5.32h-5.76v-5.32Z"/>
    </g>
    <g>
      <path class="cls-2" d="m155.45,371.52c-1.49-1.52-2.23-3.7-2.23-6.55v-2.01h5.65v2.41c0,2.27,1.03,3.41,3.1,3.41,1.01,0,1.78-.28,2.31-.83.52-.55.79-1.45.79-2.68,0-1.47-.36-2.77-1.09-3.89-.73-1.12-2.06-2.47-4.02-4.04-2.46-2.01-4.18-3.82-5.16-5.44-.98-1.62-1.47-3.45-1.47-5.49,0-2.78.76-4.92,2.28-6.45,1.52-1.52,3.73-2.28,6.63-2.28s5.03.76,6.49,2.28c1.47,1.52,2.2,3.71,2.2,6.55v1.46h-5.65v-1.81c0-1.2-.25-2.08-.76-2.63-.51-.55-1.25-.83-2.23-.83-1.99,0-2.99,1.12-2.99,3.36,0,1.27.37,2.46,1.11,3.56.74,1.1,2.09,2.44,4.05,4.01,2.5,2.01,4.22,3.83,5.16,5.47.94,1.64,1.41,3.56,1.41,5.77,0,2.88-.77,5.08-2.31,6.62-1.54,1.54-3.78,2.31-6.71,2.31s-5.09-.76-6.57-2.28Z"/>
      <path class="cls-2" d="m179.14,343.2h-6.25v-5.02h18.47v5.02h-6.25v30.1h-5.98v-30.1Z"/>
      <path class="cls-2" d="m199.94,358.35l-7.23-20.17h6.36l4.07,12.89h.11l4.07-12.89h5.81l-7.23,20.17v14.95h-5.98v-14.95Z"/>
      <path class="cls-2" d="m215.86,338.18h5.98v30.1h9.83v5.02h-15.81v-35.12Z"/>
      <path class="cls-2" d="m234.55,338.18h16.3v5.02h-10.32v9.28h8.2v5.02h-8.2v10.79h10.32v5.02h-16.3v-35.12Z"/>
      <path class="cls-2" d="m254.27,348.87h5.76v5.32h-5.76v-5.32Zm0,19.12h5.76v5.32h-5.76v-5.32Z"/>
    </g>
    <g>
      <path class="cls-5" d="m286.44,127.11l3.31-7.05h2.77l-2.28,6.46h1.95v5.71h-5.75v-5.11Z"/>
      <path class="cls-5" d="m296.64,120.06h15.79v5.38h-9.82v10.5h7.71v5.38h-7.71v16.42h-5.97v-37.68Z"/>
      <path class="cls-5" d="m317.21,155.8c-1.56-1.65-2.33-3.98-2.33-7v-19.81c0-3.01.78-5.35,2.33-7,1.56-1.65,3.8-2.48,6.73-2.48s5.17.83,6.73,2.48c1.55,1.65,2.33,3.98,2.33,7v19.81c0,3.01-.78,5.35-2.33,7-1.56,1.65-3.8,2.48-6.73,2.48s-5.17-.82-6.73-2.48Zm9.82-6.62v-20.56c0-2.48-1.03-3.71-3.09-3.71s-3.09,1.24-3.09,3.71v20.56c0,2.48,1.03,3.71,3.09,3.71s3.09-1.24,3.09-3.71Z"/>
      <path class="cls-5" d="m337.02,120.06h7.49l5.81,22.55h.11v-22.55h5.32v37.68h-6.13l-7.16-27.51h-.11v27.51h-5.32v-37.68Z"/>
      <path class="cls-5" d="m364.85,125.44h-6.24v-5.38h18.45v5.38h-6.24v32.3h-5.97v-32.3Z"/>
      <path class="cls-5" d="m381.13,155.83c-1.48-1.63-2.23-3.97-2.23-7.02v-2.15h5.64v2.58c0,2.44,1.03,3.66,3.09,3.66,1.01,0,1.78-.3,2.31-.89.52-.59.79-1.55.79-2.88,0-1.58-.36-2.97-1.08-4.17-.72-1.2-2.06-2.65-4.02-4.33-2.46-2.15-4.18-4.1-5.16-5.84-.98-1.74-1.46-3.71-1.46-5.89,0-2.98.76-5.28,2.28-6.92,1.52-1.63,3.73-2.45,6.62-2.45s5.02.82,6.48,2.45,2.2,3.97,2.2,7.02v1.56h-5.64v-1.94c0-1.29-.25-2.23-.76-2.83-.51-.59-1.25-.89-2.23-.89-1.99,0-2.98,1.2-2.98,3.61,0,1.36.37,2.64,1.11,3.82.74,1.18,2.09,2.62,4.04,4.31,2.5,2.15,4.21,4.11,5.16,5.87.94,1.76,1.41,3.82,1.41,6.19,0,3.09-.77,5.46-2.31,7.11-1.54,1.65-3.77,2.48-6.7,2.48s-5.08-.82-6.57-2.45Z"/>
      <path class="cls-5" d="m402.08,125.77h-1.95v-5.71h5.75v5.11l-3.31,7.05h-2.77l2.28-6.46Z"/>
    </g>
    <g>
      <path class="cls-5" d="m288.71,197.75l3.31-7.05h2.77l-2.28,6.46h1.95v5.71h-5.75v-5.11Z"/>
      <path class="cls-5" d="m300.79,226.49c-1.5-1.62-2.25-3.89-2.25-6.84v-20.24c0-2.94.75-5.22,2.25-6.84s3.68-2.42,6.54-2.42,5.04.81,6.54,2.42,2.25,3.89,2.25,6.84v3.98h-5.64v-4.36c0-2.33-1-3.5-2.98-3.5s-2.98,1.17-2.98,3.5v21.05c0,2.3.99,3.45,2.98,3.45s2.98-1.15,2.98-3.45v-5.76h5.64v5.33c0,2.94-.75,5.22-2.25,6.84-1.5,1.61-3.68,2.42-6.54,2.42s-5.04-.81-6.54-2.42Z"/>
      <path class="cls-5" d="m321.71,226.44c-1.56-1.65-2.33-3.98-2.33-7v-19.81c0-3.01.78-5.35,2.33-7,1.56-1.65,3.8-2.48,6.73-2.48s5.17.83,6.73,2.48c1.55,1.65,2.33,3.98,2.33,7v19.81c0,3.01-.78,5.35-2.33,7-1.56,1.65-3.8,2.48-6.73,2.48s-5.17-.83-6.73-2.48Zm9.82-6.62v-20.56c0-2.48-1.03-3.71-3.09-3.71s-3.09,1.24-3.09,3.71v20.56c0,2.48,1.03,3.71,3.09,3.71s3.09-1.24,3.09-3.71Z"/>
      <path class="cls-5" d="m341.51,190.7h5.97v32.3h9.82v5.38h-15.79v-37.68Z"/>
      <path class="cls-5" d="m361.86,226.44c-1.56-1.65-2.33-3.98-2.33-7v-19.81c0-3.01.78-5.35,2.33-7,1.56-1.65,3.8-2.48,6.73-2.48s5.17.83,6.73,2.48c1.55,1.65,2.33,3.98,2.33,7v19.81c0,3.01-.78,5.35-2.33,7-1.56,1.65-3.8,2.48-6.73,2.48s-5.17-.83-6.73-2.48Zm9.82-6.62v-20.56c0-2.48-1.03-3.71-3.09-3.71s-3.09,1.24-3.09,3.71v20.56c0,2.48,1.03,3.71,3.09,3.71s3.09-1.24,3.09-3.71Z"/>
      <path class="cls-5" d="m381.67,190.7h8.85c3.07,0,5.32.71,6.73,2.13,1.41,1.42,2.12,3.6,2.12,6.54v2.31c0,3.91-1.3,6.39-3.91,7.43v.11c1.45.43,2.47,1.31,3.07,2.64.6,1.33.9,3.1.9,5.33v6.62c0,1.08.04,1.95.11,2.61.07.66.25,1.32.54,1.96h-6.08c-.22-.61-.36-1.18-.43-1.72-.07-.54-.11-1.51-.11-2.91v-6.89c0-1.72-.28-2.92-.84-3.61-.56-.68-1.53-1.02-2.9-1.02h-2.06v16.15h-5.97v-37.68Zm8.14,16.15c1.19,0,2.09-.3,2.69-.92.6-.61.9-1.63.9-3.07v-2.91c0-1.36-.24-2.35-.73-2.96-.49-.61-1.26-.92-2.31-.92h-2.71v10.77h2.17Z"/>
      <path class="cls-5" d="m404.73,226.47c-1.48-1.63-2.23-3.97-2.23-7.02v-2.15h5.64v2.58c0,2.44,1.03,3.66,3.09,3.66,1.01,0,1.78-.3,2.31-.89.52-.59.79-1.55.79-2.88,0-1.58-.36-2.97-1.08-4.17-.72-1.2-2.06-2.65-4.02-4.33-2.46-2.15-4.18-4.1-5.16-5.84-.98-1.74-1.46-3.71-1.46-5.89,0-2.98.76-5.28,2.28-6.92,1.52-1.63,3.73-2.45,6.62-2.45s5.02.82,6.48,2.45c1.46,1.63,2.2,3.98,2.2,7.02v1.56h-5.64v-1.94c0-1.29-.25-2.23-.76-2.83-.51-.59-1.25-.89-2.23-.89-1.99,0-2.98,1.2-2.98,3.61,0,1.36.37,2.64,1.11,3.82s2.09,2.62,4.04,4.31c2.5,2.15,4.21,4.11,5.16,5.87.94,1.76,1.41,3.82,1.41,6.19,0,3.09-.77,5.46-2.31,7.11-1.54,1.65-3.77,2.48-6.7,2.48s-5.08-.82-6.57-2.45Z"/>
      <path class="cls-5" d="m425.68,196.4h-1.95v-5.71h5.75v5.11l-3.31,7.05h-2.77l2.28-6.46Z"/>
    </g>
    <g>
      <path class="cls-5" d="m289.15,272.36l3.31-7.05h2.77l-2.28,6.46h1.95v5.71h-5.75v-5.11Z"/>
      <path class="cls-5" d="m299.35,265.3h8.79c2.97,0,5.19.79,6.68,2.37,1.48,1.58,2.22,3.89,2.22,6.94v3.71c0,3.05-.74,5.37-2.22,6.94-1.48,1.58-3.71,2.37-6.68,2.37h-2.82v15.34h-5.97v-37.68Zm8.79,16.96c.98,0,1.71-.27,2.2-.81.49-.54.73-1.45.73-2.74v-4.47c0-1.29-.24-2.21-.73-2.74-.49-.54-1.22-.81-2.2-.81h-2.82v11.57h2.82Z"/>
      <path class="cls-5" d="m322.2,301.05c-1.55-1.65-2.33-3.98-2.33-7v-19.81c0-3.01.78-5.35,2.33-7,1.56-1.65,3.8-2.47,6.73-2.47s5.17.82,6.73,2.47c1.55,1.65,2.33,3.98,2.33,7v19.81c0,3.01-.78,5.35-2.33,7-1.56,1.65-3.8,2.47-6.73,2.47s-5.17-.82-6.73-2.47Zm9.82-6.62v-20.56c0-2.48-1.03-3.71-3.09-3.71s-3.09,1.24-3.09,3.71v20.56c0,2.47,1.03,3.71,3.09,3.71s3.09-1.24,3.09-3.71Z"/>
      <path class="cls-5" d="m343.2,301.07c-1.48-1.63-2.22-3.97-2.22-7.02v-2.15h5.64v2.58c0,2.44,1.03,3.66,3.09,3.66,1.01,0,1.78-.29,2.31-.89.52-.59.79-1.55.79-2.88,0-1.58-.36-2.97-1.09-4.17-.72-1.2-2.06-2.65-4.02-4.33-2.46-2.15-4.18-4.1-5.15-5.84s-1.46-3.71-1.46-5.89c0-2.98.76-5.28,2.28-6.92,1.52-1.63,3.73-2.45,6.62-2.45s5.02.82,6.48,2.45,2.2,3.97,2.2,7.02v1.56h-5.64v-1.94c0-1.29-.25-2.23-.76-2.83-.51-.59-1.25-.89-2.22-.89-1.99,0-2.98,1.2-2.98,3.61,0,1.37.37,2.64,1.11,3.82.74,1.18,2.09,2.62,4.04,4.31,2.5,2.15,4.21,4.11,5.16,5.87.94,1.76,1.41,3.82,1.41,6.19,0,3.09-.77,5.46-2.31,7.11s-3.77,2.47-6.7,2.47-5.08-.81-6.57-2.45Z"/>
      <path class="cls-5" d="m362.19,265.3h5.97v37.68h-5.97v-37.68Z"/>
      <path class="cls-5" d="m377.28,270.69h-6.24v-5.38h18.45v5.38h-6.24v32.3h-5.97v-32.3Z"/>
      <path class="cls-5" d="m392.36,265.3h5.97v37.68h-5.97v-37.68Z"/>
      <path class="cls-5" d="m404.68,301.05c-1.56-1.65-2.33-3.98-2.33-7v-19.81c0-3.01.78-5.35,2.33-7,1.55-1.65,3.8-2.47,6.73-2.47s5.17.82,6.73,2.47c1.55,1.65,2.33,3.98,2.33,7v19.81c0,3.01-.78,5.35-2.33,7s-3.8,2.47-6.73,2.47-5.17-.82-6.73-2.47Zm9.82-6.62v-20.56c0-2.48-1.03-3.71-3.09-3.71s-3.09,1.24-3.09,3.71v20.56c0,2.47,1.03,3.71,3.09,3.71s3.09-1.24,3.09-3.71Z"/>
      <path class="cls-5" d="m424.48,265.3h7.49l5.8,22.55h.11v-22.55h5.32v37.68h-6.13l-7.16-27.51h-.11v27.51h-5.32v-37.68Z"/>
      <path class="cls-5" d="m448.85,301.07c-1.48-1.63-2.22-3.97-2.22-7.02v-2.15h5.64v2.58c0,2.44,1.03,3.66,3.09,3.66,1.01,0,1.78-.29,2.31-.89.52-.59.79-1.55.79-2.88,0-1.58-.36-2.97-1.09-4.17-.72-1.2-2.06-2.65-4.02-4.33-2.46-2.15-4.18-4.1-5.15-5.84s-1.46-3.71-1.46-5.89c0-2.98.76-5.28,2.28-6.92,1.52-1.63,3.73-2.45,6.62-2.45s5.02.82,6.48,2.45,2.2,3.97,2.2,7.02v1.56h-5.64v-1.94c0-1.29-.25-2.23-.76-2.83-.51-.59-1.25-.89-2.22-.89-1.99,0-2.98,1.2-2.98,3.61,0,1.37.37,2.64,1.11,3.82.74,1.18,2.09,2.62,4.04,4.31,2.5,2.15,4.21,4.11,5.16,5.87.94,1.76,1.41,3.82,1.41,6.19,0,3.09-.77,5.46-2.31,7.11s-3.77,2.47-6.7,2.47-5.08-.81-6.57-2.45Z"/>
      <path class="cls-5" d="m469.8,271.01h-1.96v-5.71h5.75v5.11l-3.31,7.05h-2.77l2.28-6.46Z"/>
    </g>
    <g>
      <path class="cls-5" d="m288.71,342.33l3.31-7.05h2.77l-2.28,6.46h1.95v5.71h-5.75v-5.11Z"/>
      <path class="cls-5" d="m300.11,371.05c-1.48-1.63-2.23-3.97-2.23-7.02v-2.15h5.64v2.58c0,2.44,1.03,3.66,3.09,3.66,1.01,0,1.78-.3,2.31-.89.52-.59.79-1.55.79-2.88,0-1.58-.36-2.97-1.08-4.17-.72-1.2-2.06-2.65-4.02-4.33-2.46-2.15-4.18-4.1-5.16-5.84s-1.46-3.71-1.46-5.89c0-2.98.76-5.28,2.28-6.92,1.52-1.63,3.73-2.45,6.62-2.45s5.02.82,6.48,2.45,2.2,3.97,2.2,7.02v1.56h-5.64v-1.94c0-1.29-.25-2.23-.76-2.83-.51-.59-1.25-.89-2.23-.89-1.99,0-2.98,1.2-2.98,3.61,0,1.36.37,2.64,1.11,3.82.74,1.18,2.09,2.62,4.04,4.31,2.5,2.15,4.21,4.11,5.16,5.87.94,1.76,1.41,3.82,1.41,6.19,0,3.09-.77,5.46-2.31,7.11-1.54,1.65-3.77,2.48-6.7,2.48s-5.08-.82-6.57-2.45Z"/>
      <path class="cls-5" d="m319.1,335.28h5.97v37.68h-5.97v-37.68Z"/>
      <path class="cls-5" d="m328.33,367.68l11.07-27.02h-10.53v-5.38h16.93v5.28l-11.07,27.02h11.07v5.38h-17.47v-5.28Z"/>
      <path class="cls-5" d="m349.16,335.28h16.28v5.38h-10.31v9.96h8.19v5.38h-8.19v11.57h10.31v5.38h-16.28v-37.68Z"/>
      <path class="cls-5" d="m370.82,340.98h-1.95v-5.71h5.75v5.11l-3.31,7.05h-2.77l2.28-6.46Z"/>
    </g>
    <path class="cls-1" d="m115.69,441.79h.9c1.01,0,1.76-.29,2.25-.87.49-.58.73-1.62.73-3.12v-8.43c0-2.62,1.14-4.27,3.43-4.94v-.11c-2.29-.67-3.43-2.32-3.43-4.94v-8.43c0-1.5-.24-2.54-.73-3.12-.49-.58-1.24-.87-2.25-.87h-.9v-5.06h3.15c1.83,0,3.33.53,4.5,1.57,1.16,1.05,1.74,2.6,1.74,4.66v10.34c0,1.31.24,2.2.73,2.67.49.47,1.42.7,2.81.7v5.06c-1.39,0-2.32.23-2.81.7-.49.47-.73,1.36-.73,2.67v10.34c0,2.06-.58,3.61-1.74,4.66-1.16,1.05-2.66,1.57-4.5,1.57h-3.15v-5.06Z"/>
  </g>
</svg>