<?xml version="1.0" encoding="UTF-8"?>
<svg id="Layer_2" data-name="Layer 2" xmlns="http://www.w3.org/2000/svg" viewBox="0 0 37.77 81.43">
  <defs>
    <style>
      .cls-1 {
        fill: #000;
      }
    </style>
  </defs>
  <g id="Layer_1-2" data-name="Layer 1">
    <path class="cls-1" d="m4.86,76.22c-3.24-3.47-4.86-8.37-4.86-14.7V19.9c0-6.33,1.62-11.23,4.86-14.7C8.1,1.73,12.78,0,18.89,0s10.78,1.73,14.02,5.2c3.24,3.47,4.86,8.37,4.86,14.7v41.62c0,6.33-1.62,11.24-4.86,14.7-3.24,3.47-7.92,5.2-14.02,5.2s-10.78-1.73-14.02-5.2Zm20.47-13.91V19.11c0-5.2-2.15-7.8-6.45-7.8s-6.45,2.6-6.45,7.8v43.2c0,5.2,2.15,7.8,6.45,7.8s6.45-2.6,6.45-7.8Z"/>
  </g>
</svg>