<?xml version="1.0" encoding="UTF-8"?>
<svg id="Layer_2" data-name="Layer 2" xmlns="http://www.w3.org/2000/svg" viewBox="0 0 38.34 79.16">
  <defs>
    <style>
      .cls-1 {
        fill: #000;
      }
    </style>
  </defs>
  <g id="Layer_1-2" data-name="Layer 1">
    <path class="cls-1" d="m0,0h18.43c6.41,0,11.08,1.49,14.02,4.47,2.94,2.98,4.41,7.56,4.41,13.74v4.86c0,8.22-2.71,13.42-8.14,15.61v.23c3.01.91,5.15,2.75,6.39,5.54,1.24,2.79,1.87,6.52,1.87,11.2v13.91c0,2.26.07,4.09.23,5.49.15,1.4.53,2.77,1.13,4.13h-12.67c-.45-1.28-.75-2.49-.9-3.62-.15-1.13-.23-3.17-.23-6.11v-14.48c0-3.62-.58-6.14-1.75-7.58-1.17-1.43-3.19-2.15-6.05-2.15h-4.3v33.93H0V0Zm16.96,33.93c2.49,0,4.35-.64,5.6-1.92,1.24-1.28,1.87-3.43,1.87-6.45v-6.11c0-2.86-.51-4.94-1.53-6.22-1.02-1.28-2.62-1.92-4.81-1.92h-5.65v22.62h4.52Z"/>
  </g>
</svg>