<?xml version="1.0" encoding="UTF-8"?>
<svg id="Layer_2" data-name="Layer 2" xmlns="http://www.w3.org/2000/svg" viewBox="0 0 37.09 81.43">
  <defs>
    <style>
      .cls-1 {
        fill: #000;
      }
    </style>
  </defs>
  <g id="Layer_1-2" data-name="Layer 1">
    <path class="cls-1" d="m4.64,76.28c-3.09-3.43-4.64-8.35-4.64-14.76v-4.52h11.76v5.43c0,5.13,2.15,7.69,6.45,7.69,2.11,0,3.71-.62,4.81-1.87,1.09-1.24,1.64-3.26,1.64-6.05,0-3.32-.75-6.24-2.26-8.76-1.51-2.53-4.3-5.56-8.37-9.1-5.13-4.52-8.71-8.61-10.74-12.27C1.24,28.41.23,24.28.23,19.68.23,13.42,1.81,8.58,4.98,5.15,8.14,1.72,12.74,0,18.77,0s10.46,1.72,13.51,5.15c3.05,3.43,4.58,8.35,4.58,14.76v3.28h-11.76v-4.07c0-2.71-.53-4.69-1.58-5.94-1.06-1.24-2.6-1.87-4.64-1.87-4.15,0-6.22,2.53-6.22,7.58,0,2.87.77,5.54,2.32,8.03,1.54,2.49,4.35,5.5,8.43,9.05,5.2,4.52,8.78,8.63,10.74,12.33,1.96,3.7,2.94,8.03,2.94,13.01,0,6.48-1.6,11.46-4.81,14.93-3.21,3.47-7.86,5.2-13.97,5.2s-10.59-1.71-13.68-5.15Z"/>
  </g>
</svg>